<svg id="icons" enable-background="new 0 0 64 64" height="64" viewBox="0 0 64 64" width="64" xmlns="http://www.w3.org/2000/svg"><g><g><path d="m54 50.988c-5.514 0-10-4.485-10-10 0-5.514 4.486-10 10-10s10 4.486 10 10c0 5.515-4.486 10-10 10zm0-18c-4.411 0-8 3.59-8 8 0 4.412 3.589 8 8 8s8-3.588 8-8c0-4.41-3.589-8-8-8z"/></g><g><path d="m54 46.988c-3.309 0-6-2.69-6-6 0-3.309 2.691-6 6-6s6 2.691 6 6c0 3.31-2.691 6-6 6zm0-10c-2.206 0-4 1.795-4 4 0 2.207 1.794 4 4 4s4-1.793 4-4c0-2.205-1.794-4-4-4z"/></g><g><path d="m12.001 51.012c-5.514 0-10-4.486-10-10 0-5.515 4.486-10 10-10 2.665 0 5.173 1.037 7.061 2.918.391.391.392 1.022.002 1.414-.39.393-1.022.393-1.414.002-1.511-1.506-3.517-2.334-5.648-2.334-4.411 0-8 3.588-8 8 0 4.41 3.589 8 8 8s8-3.59 8-8c0-.554.447-1 1-1s1 .446 1 1c-.001 5.511-4.487 10-10.001 10z"/></g><g><path d="m12.001 46.012c-2.757 0-5-2.244-5-5 0-2.758 2.243-5 5-5 1.333 0 2.588.52 3.532 1.461.391.391.391 1.023.001 1.416-.391.391-1.024.389-1.415 0-.566-.566-1.318-.877-2.118-.877-1.654 0-3 1.346-3 3 0 1.653 1.346 3 3 3s3-1.347 3-3c0-.554.447-1 1-1s1 .446 1 1c0 2.756-2.243 5-5 5z"/></g><g><path d="" style="fill:none;stroke:rgb(0,0,0);stroke-width:2;stroke-linecap:round;stroke-linejoin:round;stroke-miterlimit:10"/></g><g><path d="m20.998 32.991c-.176 0-.354-.046-.515-.144l-19.955-12.001c-.473-.285-.626-.899-.342-1.373.285-.473.9-.627 1.373-.341l19.955 12.002c.473.285.626.899.342 1.373-.188.311-.519.484-.858.484z"/></g><g><path d="m39 25.989h-21.999c-.304 0-.591-.138-.781-.375l-3.7-4.625h-11.476c-.553 0-1-.448-1-1s.447-1 1-1h11.956c.304 0 .591.138.781.375l3.7 4.625h21.519c.553 0 1 .448 1 1s-.447 1-1 1z"/></g><g><path d="m42 22.989c-.064 0-.131-.006-.197-.02l-9.998-2c-.541-.108-.893-.635-.784-1.177.107-.542.639-.894 1.177-.784l9.997 2c.541.108.894.635.785 1.177-.095.476-.513.804-.98.804z"/></g><g><path d="m48.344 34.988c-.324 0-.645-.157-.837-.45-.303-.461-.175-1.081.287-1.386l9.802-6.441-8.117-11.722h-1.478c-.553 0-1-.448-1-1s.447-1 1-1h2c.328 0 .636.161.822.431l8.999 12.995c.152.222.211.496.158.76-.051.265-.207.497-.433.645l-10.657 7.005c-.167.113-.358.163-.546.163z"/></g><g><path d="m45.945 46.008h-20.966c-.553 0-1-.447-1-1s.447-1 1-1h20.966c.554 0 1 .447 1 1s-.447 1-1 1z"/></g><g><path d="m48.001 20.989c-.553 0-1-.448-1-1v-6c0-.552.447-1 1-1 .554 0 1 .448 1 1v6c0 .553-.446 1-1 1z"/></g><g><path d="m46 22.99c-.553 0-1-.448-1-1s.447-1 1-1c.552 0 1.001-.449 1.001-1.001s.447-1 1-1c.554 0 1 .448 1 1 0 1.655-1.347 3.001-3.001 3.001z"/></g><g><path d="m54.001 41.988c-.362 0-.712-.196-.89-.541l-4.137-8c-.252-.489-.062-1.093.43-1.346.49-.256 1.095-.062 1.349.428l4.136 8c.254.49.063 1.095-.43 1.349-.146.075-.305.11-.458.11z"/></g><g><path d="m44.999 22.99c-.554 0-1-.448-1-1v-3.503c0-.552.446-1 1-1 .553 0 1 .448 1 1v3.503c0 .552-.447 1-1 1z"/></g><g><path d="m41.999 22.989c-.554 0-1-.448-1-1v-3.502c0-.552.446-1 1-1 .553 0 1 .448 1 1v3.502c0 .553-.447 1-1 1z"/></g><g><path d="m46 22.99h-1.001c-.554 0-1-.448-1-1s.446-1 1-1h1.001c.553 0 1 .448 1 1s-.447 1-1 1z"/></g><g><path d="m43.499 20.987c-1.379 0-2.5-1.122-2.5-2.5s1.121-2.5 2.5-2.5 2.5 1.122 2.5 2.5-1.121 2.5-2.5 2.5zm0-3c-.274 0-.5.224-.5.5s.226.5.5.5.5-.224.5-.5-.226-.5-.5-.5z"/></g><g><path d="m54.77 30.769c-.317 0-.629-.15-.824-.431l-6.769-9.776c-.313-.454-.2-1.077.253-1.392.454-.315 1.076-.201 1.393.253l6.769 9.776c.313.454.201 1.077-.253 1.392-.176.12-.374.178-.569.178z"/></g><g><path d="m27.002 25.989c-.553 0-1-.448-1-1 0-3.307 2.69-5.998 5.998-5.998.553 0 1 .448 1 1s-.447 1-1 1c-2.204 0-3.998 1.793-3.998 3.998 0 .553-.447 1-1 1z"/></g><g><path d="m24.979 46.008c-.553 0-1-.447-1-1 0-1.652-1.345-2.996-2.997-2.996-.553 0-1-.447-1-1 0-.554.447-1 1-1 2.756 0 4.997 2.24 4.997 4.996 0 .553-.448 1-1 1z"/></g><g><path d="m3.002 29.989c-.553 0-1-.448-1-1v-5c0-.552.447-1 1-1s1 .448 1 1v5c0 .553-.447 1-1 1z"/></g><g><path d="m7.694 24.989h-6.694c-.553 0-1-.448-1-1s.447-1 1-1h6.694c.553 0 1 .448 1 1s-.447 1-1 1z"/></g><g><path d="m12.001 42.012c-.256 0-.511-.099-.706-.293-.391-.39-.392-1.023-.002-1.414l8.998-9.024c.391-.391 1.023-.392 1.414-.002s.392 1.023.002 1.415l-8.998 9.023c-.195.196-.451.295-.708.295z"/></g><g><path d="m21.001 42.012h-9c-.553 0-1-.447-1-1 0-.554.447-1 1-1h9c.553 0 1 .446 1 1 0 .552-.447 1-1 1z"/></g><g><path d="m32.001 42.993c-2.206 0-4-1.794-4-4s1.794-4 4-4 4 1.794 4 4-1.794 4-4 4zm0-6c-1.103 0-2 .897-2 2s.897 2 2 2 2-.897 2-2-.897-2-2-2z"/></g><g><path d="m25.496 37.988c-1.378 0-2.499-1.12-2.499-2.498 0-1.379 1.121-2.5 2.499-2.5s2.499 1.121 2.499 2.5c0 1.378-1.121 2.498-2.499 2.498zm0-2.997c-.275 0-.499.224-.499.499s.224.498.499.498.499-.223.499-.498-.224-.499-.499-.499z"/></g><g><path d="m35.001 33.988c-.379 0-.739-.215-.909-.58-.23-.502-.012-1.096.489-1.327l13.005-5.998c.505-.232 1.098-.011 1.327.489.231.501.012 1.096-.489 1.327l-13.005 5.998c-.136.063-.278.091-.418.091z"/></g><g><path d="m39 37.99c-.238 0-.479-.086-.669-.258-.41-.369-.442-1.002-.074-1.412l9.001-10.001c.37-.41 1.002-.444 1.412-.074.41.369.443 1.001.074 1.412l-9.001 10.002c-.197.22-.47.331-.743.331z"/></g><g><path d="m39 37.99c-.256 0-.512-.098-.707-.293l-4-4.002c-.391-.391-.391-1.023 0-1.414s1.023-.391 1.414 0l4 4.001c.391.391.391 1.023 0 1.414-.195.197-.451.294-.707.294z"/></g><g><path d="m39 25.988c-.553 0-1-.448-1-1s.447-1 1-1c1.104 0 1.999-.897 1.999-1.999 0-.552.446-1 1-1 .553 0 1 .448 1 1 0 2.205-1.794 3.999-3.999 3.999z"/></g></g></svg>